<?xml version="1.0" encoding="utf-8"?>
<!-- Generator: Adobe Illustrator 19.2.1, SVG Export Plug-In . SVG Version: 6.00 Build 0)  -->
<svg version="1.1" id="Layer_1" xmlns="http://www.w3.org/2000/svg" xmlns:xlink="http://www.w3.org/1999/xlink" x="0px" y="0px"
	 viewBox="0 0 342.1 276" style="enable-background:new 0 0 342.1 276;" xml:space="preserve">
<style type="text/css">
	.st0{fill:#FFFFFF;}
	.st1{fill:#A5A5A5;}
	.st2{clip-path:url(#SVGID_2_);}
	.st3{fill:#69C3E2;}
	.st4{fill:#EACD1F;}
	.st5{fill:#DF5851;}
	.st6{clip-path:url(#SVGID_4_);}
	.st7{clip-path:url(#SVGID_6_);fill:#E0E0E0;}
	.st8{fill:#E0E0E0;}
</style>
<title>gaslight-logo--primary-white</title>
<polygon class="st0" points="131.4,138.5 131.5,138.6 168.8,175.9 206.2,138.6 168.7,101.1 "/>
<g>
	<circle class="st1" cx="168.8" cy="139" r="130"/>
	<circle class="st0" cx="168.8" cy="139" r="117.2"/>
	<g>
		<defs>
			<path id="SVGID_1_" d="M285.8,132.6c-3.3-61.8-54.5-110.8-117.1-110.8S55,70.8,51.7,132.6H285.8z"/>
		</defs>
		<clipPath id="SVGID_2_">
			<use xlink:href="#SVGID_1_"  style="overflow:visible;"/>
		</clipPath>
		<g class="st2">
			
				<rect x="189" y="65.9" transform="matrix(0.7072 -0.707 0.707 0.7072 -12.4743 204.2892)" class="st3" width="102.8" height="102.7"/>
			<polygon class="st4" points="240.7,44.9 240.5,44.6 167.8,-28 95.1,44.7 168,117.5 			"/>
			<polygon class="st5" points="22.2,117.6 95,190.5 168,117.5 95.1,44.7 95.1,44.7 			"/>
		</g>
	</g>
	<g>
		<defs>
			<circle id="SVGID_3_" cx="168.8" cy="139" r="117.2"/>
		</defs>
		<clipPath id="SVGID_4_">
			<use xlink:href="#SVGID_3_"  style="overflow:visible;"/>
		</clipPath>
		<g class="st6">
			<rect x="34.9" y="132.3" class="st1" width="99.5" height="12.1"/>
			<rect x="203.2" y="132.3" class="st1" width="99.5" height="12.1"/>
		</g>
	</g>
	<g>
		<defs>
			<circle id="SVGID_5_" cx="168.8" cy="139" r="117.2"/>
		</defs>
		<clipPath id="SVGID_6_">
			<use xlink:href="#SVGID_5_"  style="overflow:visible;"/>
		</clipPath>
		<path class="st7" d="M168.9,136.2L65.8,239.3h39.9l63.3,63.3l63.3-63.3h39.8L168.9,136.2z M168.9,278.4l-25.3-25.3l25.3-25.3
			l25.3,25.3L168.9,278.4z M202.1,245.2L169,212.1l-0.3,0.3l-32.8,32.9L116.5,226l52.5-52.5l52.5,52.5L202.1,245.2z"/>
	</g>
</g>
<circle class="st1" cx="168.8" cy="138.5" r="43.9"/>
<circle class="st0" cx="168.8" cy="138.5" r="32.2"/>
<circle class="st8" cx="168.8" cy="139" r="21.8"/>
</svg>
